<svg xmlns="http://www.w3.org/2000/svg" xmlns:xlink="http://www.w3.org/1999/xlink" viewBox="0 0 500 500"><defs><clipPath id="freepik--clip-path--inject-13"><polygon points="417.74 167.35 413.12 164.91 412.18 163.28 411.09 163.69 412.04 166.4 412.85 169.92 414.89 170.74 415.29 170.19 414.07 168.16 417.6 169.52 417.74 167.35" style="fill:none;stroke:#919191;stroke-miterlimit:10;clip-path:url(#freepik--clip-path-7--inject-13)"></polygon></clipPath><clipPath id="freepik--clip-path-2--inject-13"><polygon points="379.09 167.21 384.51 169.65 386 172.09 388.44 173.04 388.72 175.62 387.77 177.11 385.87 177.52 381.8 175.89 381.8 175.35 384.11 174.4 383.29 171.55 379.63 170.19 378 168.03 379.09 167.21" style="fill:none;stroke:#919191;stroke-miterlimit:10"></polygon></clipPath><clipPath id="freepik--clip-path-3--inject-13"><path d="M413.26,229.86l-4.34-1.76-5.29-1.9h-4.2l-3.93-.82-4.34,1-2.44.14h-1.5l-2.84,1.63-2.71,1.08-3.67-2.3.95-3.8-2.3-1h-2.71l-.41-1.22.27-2.44-.95-1.36-1.9.27-.54,1.36-2.3.13-2-2.44-.81-3.25,2-3.8,3.93.27,1.09.95h1.63l2-1.22,1.76.55,2.44,4.2.95-.14-.27-3.12-.81-1.62.27-2.58,5-2.17.67-5,2.17-1.76,1.77-3.12,1.35-.27,3.12-2,.14-1.09-2.17.14-.41-1.09h-1.49l-2.31.55,1.09-1.77,4.74-1.35,1.09-1.22,1.9,3,1.22,1.22,1.9-.54-.82-1.77-2.84-2-3.26-3.66-3.39-2.31-3.25-.54-1.63-1.63-2.17-.54-.27.54-.27,3.94.54,1.35-1.22,4.34-2.71-2.17.4-1.9-2.84-1.35-1.22-1.49.67-3.39,3.94-2.85.27-3.26-1.49.14-.95-1.22-.41-2-.95-.14-.54,2.17-1.49.27-.68-4.74-1.09-.68-1.89-.82-2.17,1.09,2.71,2.57.54,2.31-4.88-3.66L363.36,163l-.27-3.66-3.53-1.09L356.85,160a21.17,21.17,0,0,1-2,1.09,22.86,22.86,0,0,1-3.26.54L351,164l-3.12.13.27,1.49,5,.82,2.58,2.85V174l-1.5,4.2.28,4.48-3.8,6.64-.81,9.9,1.22,5.7,1.76,4.34,2,.27-.68-2.17-1.08-1.63-.68-3,1.22-.27,1.9,4.88,1.36,4.34v3.52l2.57,3.12,4.61,3.39,7.05,1.9,2.17,2,1.63,2.17,2.44,1.5,3,.81,3-.14s-.14,1.36-.14,2-1.9,3-1.9,3l-1.49,2.71,1.09,3,3,1.22,4.2,4.34,1.9.81v2l.24.95a56.9,56.9,0,0,0,28.44-13.39l.07-1,3.66-6.65-1.76-1.22Z" style="fill:none;stroke:#919191;stroke-miterlimit:10;clip-path:url(#freepik--clip-path-2--inject-13)"></path></clipPath><clipPath id="freepik--clip-path-4--inject-13"><path d="M427.36,176.3l-1.49-2.58-1.9-3-.54-4.07,2.44.41.14-1.36-1.77-.14,1.5-.67,1.62-.95V162.6l-1.62-2.17-.35-2.92a57.19,57.19,0,0,0-67.06-16.24l3.13,2.21-1.9,2.44-2.57.54-.27,3.67-1.09.4L354.27,152l.14,2.44,2.31.28-1,2.3h2.3l3.93-5,.41-2.17,3.8-.27,1-1.62,3.93-.41.41-2.31,2.84-.13a14.47,14.47,0,0,1,2.44-1.09,16.47,16.47,0,0,1,2.31.68l2,1.63H384l2.44-1.49,3.12.27a3.33,3.33,0,0,0,1.49.54,11.92,11.92,0,0,0,2.71-1l3.94,2.44,1.62,1.22v2l2,.27.68-1.22,1.76.81-.14,1.09-4.07,1.08,2.31,3,4.88,2.72,2,2.71,3,.27.68-1.36,1.08-.27L410,156.77l-2.17-.27,1.76-.54L408,153.65l2.31-.13,3,1.62.68,3.26,1.49,1.76,1.22,3.93,3,2.17v4.48l3.12,2-.13,1.49-.41,1.77.81,2.44.27,1.22,2.31.4,1.08-2.3Z" style="fill:none;stroke:#919191;stroke-miterlimit:10;clip-path:url(#freepik--clip-path-3--inject-13)"></path></clipPath><clipPath id="freepik--clip-path-5--inject-13"><path d="M429.13,162.64v.77l-.68,2.17.4,1.9,1.5.54v2.58l-1.63-.68-.41,7.33-1.63,3,1.09,3.8,1.76,1.62V193l1.76,5.69,1.9,4.34,3.12.81,1.09-2.71.44-.34a57.51,57.51,0,0,0,.44-7.11A56.9,56.9,0,0,0,429.13,162.64Z" style="fill:none;stroke:#919191;stroke-miterlimit:10;clip-path:url(#freepik--clip-path-4--inject-13)"></path></clipPath><clipPath id="freepik--clip-path-6--inject-13"><polygon points="397.8 161.79 388.85 157.85 384.92 157.99 383.97 160.57 382.34 158.8 379.36 159.48 379.09 163.96 381.53 165.72 383.29 163.14 385.33 165.18 389.53 168.84 390.34 172.77 393.87 177.25 399.56 176.3 399.43 174.26 398.21 171.96 397.94 166.53 399.29 164.23 397.8 161.79" style="fill:none;stroke:#919191;stroke-miterlimit:10;clip-path:url(#freepik--clip-path-5--inject-13)"></polygon></clipPath><clipPath id="freepik--clip-path-7--inject-13"><polygon points="405.12 164.77 403.09 164.23 401.33 165.72 402.28 169.65 404.04 169.65 405.12 164.77" style="fill:none;stroke:#919191;stroke-miterlimit:10;clip-path:url(#freepik--clip-path-6--inject-13)"></polygon></clipPath><clipPath id="freepik--clip-path-8--inject-13"><path d="M287.59,265c-14.44-7-22-11.65-22-11.65h-9.35s-7.55,4.6-22,11.65c-.85.41-1.67.8-2.49,1.16l25.32,24.74a6.87,6.87,0,0,0,10-.42l21.57-25Z" style="fill:#fff;stroke:#263238;stroke-linecap:round;stroke-linejoin:round"></path></clipPath><clipPath id="freepik--clip-path-9--inject-13"><path d="M305.81,294.83c-3.29,3.45-4.6,11.32-10.34,13.95s-24.62,2.13-24.62,2.13-35.77,1.48-41.85-1.31-8.86-13.79-12.47-15.43-6.07,1.48-6.07,4.27-3.12,25.44-3.12,25.44,4.26,3.06,7.19,5.06l2.66-17.86s2,11.65,6.24,18.21a51.31,51.31,0,0,0,10.5,11.33v21.66h54V340.62a51.31,51.31,0,0,0,10.5-11.33c4.27-6.56,6.24-18.21,6.24-18.21l2.88-3.71c1.2,1.69,3.13,4.34,6.14,8.3a86.28,86.28,0,0,0,8.46,9.3l4.67-5.69S315.33,303.53,313,299.75,309.09,291.38,305.81,294.83Z" style="fill:#fff;stroke:#263238;stroke-linecap:round;stroke-linejoin:round"></path></clipPath><clipPath id="freepik--clip-path-10--inject-13"><path d="M244.92,221.47a27.71,27.71,0,0,1-14.44-4.76c-6.73-4.75-4.27-27.73,3.28-35.44s21-11.82,33.48-8.21,17.89,18.05,18.87,21.34,2.79,4.1,2.47,6.23a14.22,14.22,0,0,1-1.15,3.78s.16,10.66-1,13.29-1.64,2.79-2.95,6.07-2,10.34-3.12,14.93-2.63,6.73-9,6.9-10,.82-14.27-7.06S252,223.44,244.92,221.47Z" style="fill:#ccc;stroke:#263238;stroke-linecap:round;stroke-linejoin:round"></path></clipPath></defs><g id="freepik--background-simple--inject-13"><path d="M346.83,73.46s-62.08-33.29-131.38-5.62-111.95,96.91-148,152.09-28.42,118,16.71,152.89,84.05-.67,153,7.7,86,21.07,148.46-9.51,85.55-121.52,50.1-196.72S346.83,73.46,346.83,73.46Z" style="fill:#5C55F7"></path><path d="M346.83,73.46s-62.08-33.29-131.38-5.62-111.95,96.91-148,152.09-28.42,118,16.71,152.89,84.05-.67,153,7.7,86,21.07,148.46-9.51,85.55-121.52,50.1-196.72S346.83,73.46,346.83,73.46Z" style="fill:#fff;opacity:0.7000000000000001"></path></g><g id="freepik--Character--inject-13"><path d="M392.62,239.2c-1.48-5.42-1-11.82-1.15-13.62s-2.79-4.11-5.58-1.48a84.17,84.17,0,0,1-6.56,5.41l-1.64-.49s.32-.82,1-2.79,3.45-6.07,5.25-9.19,3.45-4.76,4.76-8.37,2-6.89,1.15-8.53-1.81.82-2.95,3.28-4.44,6.57-7.06,10.18-6.4,9.35-8,12.14-2.79,4.76-2.63,11.16-2,18.22-3.28,24.62-8.7,20.67-13.62,28.06-9.68,29.05-9.68,29.05l-24.35-28c.42-4.09.48-9.63-1.75-13C312.7,271.85,302,272,287.59,265s-22-11.65-22-11.65h-9.35s-7.55,4.6-22,11.65-25.11,6.89-28.89,12.64-1,17.72-1,18.21-7.22,52.85-7.22,52.85l12.14,15.26,7.88-52.84s2,11.65,6.24,18.21a51.31,51.31,0,0,0,10.5,11.33V391h54V340.62a51.31,51.31,0,0,0,10.5-11.33c4.27-6.56,6.24-18.21,6.24-18.21l2.88-3.71c1.2,1.69,3.13,4.34,6.14,8.3,6.24,8.21,16.74,16.74,19.7,19.53s3.77,7.88,9.52,7.06,7.71-10,12.8-17.73,7.71-14.93,10-23.46,3.93-24.95,6.07-31.18,6.07-20.52,6.07-20.52a10.65,10.65,0,0,0,5.25-4.76c2-3.61,2.79-14,2.79-14s1,5.58,1.81,8.37,2.95,7.55,4.26,9,2.14,1.31,3.12.49S394.1,244.61,392.62,239.2Z" style="fill:#263238;stroke:#263238;stroke-linecap:round;stroke-linejoin:round"></path><path d="M391.47,225.58c-.16-1.81-2.79-4.11-5.58-1.48a84.17,84.17,0,0,1-6.56,5.41l-1.64-.49s.32-.82,1-2.79,3.45-6.07,5.25-9.19,3.45-4.76,4.76-8.37,2-6.89,1.15-8.53-1.81.82-2.95,3.28-4.44,6.57-7.06,10.18-6.4,9.35-8,12.14-2.79,4.76-2.63,11.16-2,18.22-3.28,24.62-8.7,20.67-13.62,28.06a41.84,41.84,0,0,0-3.82,8.27,18.92,18.92,0,0,0,16.41,6.31q.44-1.52.87-3.09c2.29-8.54,3.93-24.95,6.07-31.18s6.07-20.52,6.07-20.52a10.65,10.65,0,0,0,5.25-4.76c2-3.61,2.79-14,2.79-14s1,5.58,1.81,8.37,2.95,7.55,4.26,9,2.14,1.31,3.12.49-1-3.94-2.46-9.35S391.63,227.38,391.47,225.58Z" style="fill:#fff;stroke:#263238;stroke-linecap:round;stroke-linejoin:round"></path><path d="M371.45,237.06s8.53-6.07,12.31-6.4,17.72.5,18.87.17,1,1.8-.16,3.44-3.94,1.48-6.9,1.32-11-.5-11-.5-7.39,12.31-12.15,13.13" style="fill:#fff;stroke:#263238;stroke-linecap:round;stroke-linejoin:round"></path><path d="M209.15,355.39s-.49-2.79-10.18-8.7-15.59-9.85-17.23-11.82a11.43,11.43,0,0,1-2.13-3.61s1.48-2.13,1-8-2.29-8.86-1.31-13.46,3.12-9.68,1.48-9.84-4.27.33-6.07,4.43-.33,8.37,0,10.17-3,9.52-3,9.52-.16.49-7.55-4.59-11.65-5.58-13.62-4.27-13.95,9-13.95,9-3.94,12.81-6.73,16.25.17,4.1,3.12,2.63,4.92-7.72,6.4-11.65a19.91,19.91,0,0,1,4.27-7.23c.82-.65,5.25-1.14,6.73-1.8a5.79,5.79,0,0,1,3.12-.33s5.9,5.58,7.54,9.52,3.12,7.71,5.42,8.7,5.74-.17,5.74-.17,12.31,11,16.25,15.43,4.92,6.56,10.34,9.35,8.37,4.93,10.34,1.32,1-8.21,1-8.21" style="fill:#fff;stroke:#263238;stroke-linecap:round;stroke-linejoin:round"></path><path d="M170.09,323.38a78.68,78.68,0,0,1-8.21-12.63c-3.61-7.06-4.92-8.37-6.56-8s-2.95.33-3.77,3-3,8.21-2.79,11.65,1,9,1,12,3.61,2.46,4.1,1.64.33-5.25.33-9.84v-5.42l1.31-4.27a25.68,25.68,0,0,1,4.27,8.21c1.31,4.59,2.46,6.56,3.45,6.73" style="fill:#fff;stroke:#263238;stroke-linecap:round;stroke-linejoin:round"></path><path d="M171.73,324a27.22,27.22,0,0,0-2.62,5.91c-.83,2.95,3.28,7.38,6.07,7.71" style="fill:#fff;stroke:#263238;stroke-linecap:round;stroke-linejoin:round"></path><path d="M287.59,265c-14.44-7-22-11.65-22-11.65h-9.35s-7.55,4.6-22,11.65c-.85.41-1.67.8-2.49,1.16l25.32,24.74a6.87,6.87,0,0,0,10-.42l21.57-25Z" style="fill:#fff"></path><g style="clip-path:url(#freepik--clip-path-8--inject-13)"><path d="M265.6,253.31h-9.35s-7.55,4.6-22,11.65c-.85.41-1.67.8-2.49,1.16l2.78,2.71c5.8-2.76,15.47-7,21.45-7.92s19.44,5.37,28.14,9.81l4.53-5.25-1.08-.51C273.15,257.91,265.6,253.31,265.6,253.31Z" style="opacity:0.30000000000000004"></path></g><path d="M287.59,265c-14.44-7-22-11.65-22-11.65h-9.35s-7.55,4.6-22,11.65c-.85.41-1.67.8-2.49,1.16l25.32,24.74a6.87,6.87,0,0,0,10-.42l21.57-25Z" style="fill:none;stroke:#263238;stroke-linecap:round;stroke-linejoin:round"></path><path d="M305.81,294.83c-3.29,3.45-4.6,11.32-10.34,13.95s-24.62,2.13-24.62,2.13-35.77,1.48-41.85-1.31-8.86-13.79-12.47-15.43-6.07,1.48-6.07,4.27-3.12,25.44-3.12,25.44,4.26,3.06,7.19,5.06l2.66-17.86s2,11.65,6.24,18.21a51.31,51.31,0,0,0,10.5,11.33v21.66h54V340.62a51.31,51.31,0,0,0,10.5-11.33c4.27-6.56,6.24-18.21,6.24-18.21l2.88-3.71c1.2,1.69,3.13,4.34,6.14,8.3a86.28,86.28,0,0,0,8.46,9.3l4.67-5.69S315.33,303.53,313,299.75,309.09,291.38,305.81,294.83Z" style="fill:#fff"></path><g style="clip-path:url(#freepik--clip-path-9--inject-13)"><g style="opacity:0.30000000000000004"><path d="M294.6,314.51a.58.58,0,0,0-.21-.05C293.93,314.46,294.07,314.55,294.6,314.51Z"></path><path d="M309,303.16c-1.93-3.31-4.41,3.31-8.27,7.72-2.55,2.92-5.1,3.54-6.13,3.63,1.51.46,5,5.65,3.65,9.6-1.38,4.13-9.92,10.47-13.23,13.23-2.36,2-1.78,16.65-1.25,24.94h4.15V340.62a51.31,51.31,0,0,0,10.5-11.33c4.27-6.56,6.24-18.21,6.24-18.21l2.88-3.71c1.2,1.69,3.13,4.34,6.14,8.3a86.28,86.28,0,0,0,8.46,9.3l1.92-2.34C320.58,318.32,310.59,305.88,309,303.16Z"></path><path d="M239,362.28c-.46-7.43-1.4-22.79-1.4-24.67,0-2.48-6.61-7.71-11.85-14.33s-6.62-14.33-8.27-17.36-3,6.61-4.14,11.85c-.63,3-1.08,6.78-1.35,9.41l2.53,1.76,2.66-17.86s2,11.65,6.24,18.21a51.31,51.31,0,0,0,10.5,11.33v21.66Z"></path></g></g><path d="M305.81,294.83c-3.29,3.45-4.6,11.32-10.34,13.95s-24.62,2.13-24.62,2.13-35.77,1.48-41.85-1.31-8.86-13.79-12.47-15.43-6.07,1.48-6.07,4.27-3.12,25.44-3.12,25.44,4.26,3.06,7.19,5.06l2.66-17.86s2,11.65,6.24,18.21a51.31,51.31,0,0,0,10.5,11.33v21.66h54V340.62a51.31,51.31,0,0,0,10.5-11.33c4.27-6.56,6.24-18.21,6.24-18.21l2.88-3.71c1.2,1.69,3.13,4.34,6.14,8.3a86.28,86.28,0,0,0,8.46,9.3l4.67-5.69S315.33,303.53,313,299.75,309.09,291.38,305.81,294.83Z" style="fill:none;stroke:#263238;stroke-linecap:round;stroke-linejoin:round"></path><path d="M275.61,310.94c-2.82,0-4.76,0-4.76,0s-11.21.46-22.15.38v51h26.91Z" style="fill:#263238;stroke:#263238;stroke-linecap:round;stroke-linejoin:round"></path><path d="M222.93,299s2,3.37,8.75,6.06,21.52,2.69,23.54-.67-4.71-7.74-17.49-10.77S220.24,293.3,222.93,299Z" style="fill:#fff;opacity:0.07"></path><path d="M299.58,299s-2,3.37-8.75,6.06-21.52,2.69-23.54-.67,4.71-7.74,17.49-10.77S302.27,293.3,299.58,299Z" style="fill:#fff;opacity:0.07"></path><path d="M273.5,317.51s-2.92-4.71-11-5.38-12.64,7.06-12.64,11.1,6.48,3.7,12,3.7S279.34,328.28,273.5,317.51Z" style="fill:#fff;opacity:0.07"></path><path d="M243.94,220.49s7.55,7.06,8.86,14.28-1.31,21.66-.16,24.61,8.37,4.11,13.29,3.12,3.12-2.95,3.12-9.52.65-13.45.65-13.45a33,33,0,0,0-11.32-13.95C250.34,220.16,245.25,217.37,243.94,220.49Z" style="fill:#ccc;stroke:#263238;stroke-linecap:round;stroke-linejoin:round"></path><path d="M252.86,247.48c-.36,5.35-.84,10.31-.22,11.9,1.14,3,8.37,4.11,13.29,3.12s3.12-2.95,3.12-9.52c0-1.43,0-2.86.08-4.25A24.05,24.05,0,0,1,252.86,247.48Z" style="fill:#263238;stroke:#263238;stroke-linecap:round;stroke-linejoin:round"></path><path d="M244.92,221.47a27.71,27.71,0,0,1-14.44-4.76c-6.73-4.75-4.27-27.73,3.28-35.44s21-11.82,33.48-8.21,17.89,18.05,18.87,21.34,2.79,4.1,2.47,6.23a14.22,14.22,0,0,1-1.15,3.78s.16,10.66-1,13.29-1.64,2.79-2.95,6.07-2,10.34-3.12,14.93-2.63,6.73-9,6.9-10,.82-14.27-7.06S252,223.44,244.92,221.47Z" style="fill:#ccc"></path><g style="clip-path:url(#freepik--clip-path-10--inject-13)"><path d="M250.23,196.6c6.37-4.78,15.93-2,21.11-2s7.17-2.79,12.74-1.6a15,15,0,0,1,1.74.49c-1.52-4.44-7-17.09-18.58-20.44-12.47-3.61-25.93.49-33.48,8.21s-10,30.69-3.28,35.44a27.71,27.71,0,0,0,14.44,4.76c7.06,2,7.88,9.19,12.15,17.07,1.83,3.39,3.55,5.19,5.41,6.14-.19-2.4-.7-5.43-.7-8.66,0-6.37-3.58-5.18-8.76-9.56s-2.39-8.36-4.78-13.54S243.86,201.38,250.23,196.6Z" style="opacity:0.30000000000000004"></path></g><path d="M244.92,221.47a27.71,27.71,0,0,1-14.44-4.76c-6.73-4.75-4.27-27.73,3.28-35.44s21-11.82,33.48-8.21,17.89,18.05,18.87,21.34,2.79,4.1,2.47,6.23a14.22,14.22,0,0,1-1.15,3.78s.16,10.66-1,13.29-1.64,2.79-2.95,6.07-2,10.34-3.12,14.93-2.63,6.73-9,6.9-10,.82-14.27-7.06S252,223.44,244.92,221.47Z" style="fill:none;stroke:#263238;stroke-linecap:round;stroke-linejoin:round"></path><line x1="272.99" y1="231.32" x2="277.09" y2="231.32" style="fill:none;stroke:#263238;stroke-linecap:round;stroke-linejoin:round"></line><line x1="274.95" y1="220.82" x2="273.64" y2="223.44" style="fill:none;stroke:#263238;stroke-linecap:round;stroke-linejoin:round"></line><line x1="276.27" y1="220.82" x2="277.74" y2="223.28" style="fill:none;stroke:#263238;stroke-linecap:round;stroke-linejoin:round"></line><path d="M264.78,195.87s9-2.13,13.62-1.31" style="fill:none;stroke:#263238;stroke-linecap:round;stroke-linejoin:round"></path><path d="M267.57,193.25s5.58-1.48,9.19-1.15" style="fill:none;stroke:#263238;stroke-linecap:round;stroke-linejoin:round"></path><path d="M272,216.22s-.66,4.27-3.61,6.24-5.25,1.31-5.25,1.31" style="fill:none;stroke:#263238;stroke-linecap:round;stroke-linejoin:round"></path><path d="M278.73,216.71a4.47,4.47,0,0,0,2.79,4.44" style="fill:none;stroke:#263238;stroke-linecap:round;stroke-linejoin:round"></path><path d="M268.77,219.47a5.74,5.74,0,0,0,3.29-7c-.81-2.73-2.22-6.22-4.49-8.22-4.1-3.61-10.83-2.46-13.95,2.46s-3.12,8.87,4.1,12.15A14,14,0,0,0,268.77,219.47Z" style="fill:#263238;stroke:#263238;stroke-linecap:round;stroke-linejoin:round"></path><path d="M262.14,209.61a2.16,2.16,0,1,1-2.15-2.16A2.15,2.15,0,0,1,262.14,209.61Z" style="fill:#fff"></path><circle cx="262.36" cy="214.56" r="1.08" style="fill:#fff"></circle><path d="M287.26,202.77s-1.64-1.65-4.76,1.31-5.08,10.34-3.77,12.63,6.24,2,9.68-1S289.07,204.24,287.26,202.77Z" style="fill:#263238;stroke:#263238;stroke-linecap:round;stroke-linejoin:round"></path><path d="M283.92,209.61a2.16,2.16,0,1,1-2.16-2.16A2.16,2.16,0,0,1,283.92,209.61Z" style="fill:#fff"></path><circle cx="284.14" cy="214.56" r="1.08" style="fill:#fff"></circle></g><g id="freepik--Holograms--inject-13"><path d="M156.46,253.38A32,32,0,0,1,100,266.75" style="fill:none;stroke:#919191;stroke-miterlimit:10"></path><path d="M96.45,261.13a32,32,0,1,1,59.83-21.51,32.26,32.26,0,0,1,.85,7.45" style="fill:none;stroke:#919191;stroke-miterlimit:10"></path><path d="M152.84,230.93c.35.61.68,1.23,1,1.87,11.79-1,19.72-.14,20.39,2.75,1.18,5-19.84,14.22-46.95,20.57s-50,7.42-51.2,2.41c-.67-2.9,6.05-7.19,17.06-11.52,0-.71,0-1.41.06-2.11C73,251.8,59.77,259.25,60.89,264c1.6,6.82,31.85,5.57,67.58-2.79s63.39-20.67,61.8-27.49C189.15,229,174,228.14,152.84,230.93Z" style="fill:none;stroke:#919191;stroke-miterlimit:10"></path><polyline points="134.12 216.24 140.12 201.58 151.29 201.58" style="fill:none;stroke:#919191;stroke-miterlimit:10"></polyline><line x1="152.62" y1="188.73" x2="161.27" y2="188.73" style="fill:none;stroke:#919191;stroke-miterlimit:10"></line><line x1="152.62" y1="192.39" x2="161.27" y2="192.39" style="fill:none;stroke:#919191;stroke-miterlimit:10"></line><line x1="159.27" y1="195.05" x2="154.28" y2="200.37" style="fill:none;stroke:#919191;stroke-miterlimit:10"></line><line x1="159.27" y1="201.7" x2="154.28" y2="207.03" style="fill:none;stroke:#919191;stroke-miterlimit:10"></line><path d="M159.68,175.43A2.66,2.66,0,1,0,157,178.1,2.66,2.66,0,0,0,159.68,175.43Z" style="fill:none;stroke:#919191;stroke-miterlimit:10"></path><path d="M158.18,175.43a1.16,1.16,0,1,0-1.16,1.16A1.15,1.15,0,0,0,158.18,175.43Z" style="fill:none;stroke:#919191;stroke-miterlimit:10"></path><path d="M159.68,182.41a2.66,2.66,0,1,0-2.66,2.66A2.67,2.67,0,0,0,159.68,182.41Z" style="fill:none;stroke:#919191;stroke-miterlimit:10"></path><path d="M158.18,182.41a1.16,1.16,0,1,0-1.16,1.15A1.16,1.16,0,0,0,158.18,182.41Z" style="fill:none;stroke:#919191;stroke-miterlimit:10"></path><path d="M159.68,212a2.66,2.66,0,1,0-2.66,2.66A2.66,2.66,0,0,0,159.68,212Z" style="fill:none;stroke:#919191;stroke-miterlimit:10"></path><path d="M158.18,212a1.16,1.16,0,1,0-2.31,0,1.16,1.16,0,0,0,2.31,0Z" style="fill:none;stroke:#919191;stroke-miterlimit:10"></path><path d="M159.68,218.94A2.66,2.66,0,1,0,157,221.6,2.66,2.66,0,0,0,159.68,218.94Z" style="fill:none;stroke:#919191;stroke-miterlimit:10"></path><path d="M158.18,218.94A1.16,1.16,0,1,0,157,220.1,1.16,1.16,0,0,0,158.18,218.94Z" style="fill:none;stroke:#919191;stroke-miterlimit:10"></path><circle cx="381.14" cy="193.66" r="57.13" style="fill:none;stroke:#919191;stroke-miterlimit:10;opacity:0.18"></circle><polygon points="379.09 167.21 384.51 169.65 386 172.09 388.44 173.04 388.72 175.62 387.77 177.11 385.87 177.52 381.8 175.89 381.8 175.35 384.11 174.4 383.29 171.55 379.63 170.19 378 168.03 379.09 167.21" style="fill:none;stroke:#919191;stroke-miterlimit:10"></polygon><path d="M413.26,229.86l-4.34-1.76-5.29-1.9h-4.2l-3.93-.82-4.34,1-2.44.14h-1.5l-2.84,1.63-2.71,1.08-3.67-2.3.95-3.8-2.3-1h-2.71l-.41-1.22.27-2.44-.95-1.36-1.9.27-.54,1.36-2.3.13-2-2.44-.81-3.25,2-3.8,3.93.27,1.09.95h1.63l2-1.22,1.76.55,2.44,4.2.95-.14-.27-3.12-.81-1.62.27-2.58,5-2.17.67-5,2.17-1.76,1.77-3.12,1.35-.27,3.12-2,.14-1.09-2.17.14-.41-1.09h-1.49l-2.31.55,1.09-1.77,4.74-1.35,1.09-1.22,1.9,3,1.22,1.22,1.9-.54-.82-1.77-2.84-2-3.26-3.66-3.39-2.31-3.25-.54-1.63-1.63-2.17-.54-.27.54-.27,3.94.54,1.35-1.22,4.34-2.71-2.17.4-1.9-2.84-1.35-1.22-1.49.67-3.39,3.94-2.85.27-3.26-1.49.14-.95-1.22-.41-2-.95-.14-.54,2.17-1.49.27-.68-4.74-1.09-.68-1.89-.82-2.17,1.09,2.71,2.57.54,2.31-4.88-3.66L363.36,163l-.27-3.66-3.53-1.09L356.85,160a21.17,21.17,0,0,1-2,1.09,22.86,22.86,0,0,1-3.26.54L351,164l-3.12.13.27,1.49,5,.82,2.58,2.85V174l-1.5,4.2.28,4.48-3.8,6.64-.81,9.9,1.22,5.7,1.76,4.34,2,.27-.68-2.17-1.08-1.63-.68-3,1.22-.27,1.9,4.88,1.36,4.34v3.52l2.57,3.12,4.61,3.39,7.05,1.9,2.17,2,1.63,2.17,2.44,1.5,3,.81,3-.14s-.14,1.36-.14,2-1.9,3-1.9,3l-1.49,2.71,1.09,3,3,1.22,4.2,4.34,1.9.81v2l.24.95a56.9,56.9,0,0,0,28.44-13.39l.07-1,3.66-6.65-1.76-1.22Z" style="fill:none;stroke:#919191;stroke-miterlimit:10"></path><path d="M427.36,176.3l-1.49-2.58-1.9-3-.54-4.07,2.44.41.14-1.36-1.77-.14,1.5-.67,1.62-.95V162.6l-1.62-2.17-.35-2.92a57.19,57.19,0,0,0-67.06-16.24l3.13,2.21-1.9,2.44-2.57.54-.27,3.67-1.09.4L354.27,152l.14,2.44,2.31.28-1,2.3h2.3l3.93-5,.41-2.17,3.8-.27,1-1.62,3.93-.41.41-2.31,2.84-.13a14.47,14.47,0,0,1,2.44-1.09,16.47,16.47,0,0,1,2.31.68l2,1.63H384l2.44-1.49,3.12.27a3.33,3.33,0,0,0,1.49.54,11.92,11.92,0,0,0,2.71-1l3.94,2.44,1.62,1.22v2l2,.27.68-1.22,1.76.81-.14,1.09-4.07,1.08,2.31,3,4.88,2.72,2,2.71,3,.27.68-1.36,1.08-.27L410,156.77l-2.17-.27,1.76-.54L408,153.65l2.31-.13,3,1.62.68,3.26,1.49,1.76,1.22,3.93,3,2.17v4.48l3.12,2-.13,1.49-.41,1.77.81,2.44.27,1.22,2.31.4,1.08-2.3Z" style="fill:none;stroke:#919191;stroke-miterlimit:10"></path><path d="M429.13,162.64v.77l-.68,2.17.4,1.9,1.5.54v2.58l-1.63-.68-.41,7.33-1.63,3,1.09,3.8,1.76,1.62V193l1.76,5.69,1.9,4.34,3.12.81,1.09-2.71.44-.34a57.51,57.51,0,0,0,.44-7.11A56.9,56.9,0,0,0,429.13,162.64Z" style="fill:none;stroke:#919191;stroke-miterlimit:10"></path><polygon points="397.8 161.79 388.85 157.85 384.92 157.99 383.97 160.57 382.34 158.8 379.36 159.48 379.09 163.96 381.53 165.72 383.29 163.14 385.33 165.18 389.53 168.84 390.34 172.77 393.87 177.25 399.56 176.3 399.43 174.26 398.21 171.96 397.94 166.53 399.29 164.23 397.8 161.79" style="fill:none;stroke:#919191;stroke-miterlimit:10"></polygon><polygon points="405.12 164.77 403.09 164.23 401.33 165.72 402.28 169.65 404.04 169.65 405.12 164.77" style="fill:none;stroke:#919191;stroke-miterlimit:10"></polygon><polygon points="417.74 167.35 413.12 164.91 412.18 163.28 411.09 163.69 412.04 166.4 412.85 169.92 414.89 170.74 415.29 170.19 414.07 168.16 417.6 169.52 417.74 167.35" style="fill:none;stroke:#919191;stroke-miterlimit:10"></polygon><polygon points="378.14 216.3 377.6 216.84 381.67 218.06 383.29 219.96 385.87 220.23 386.82 218.74 383.7 218.2 378.14 216.3" style="fill:none;stroke:#919191;stroke-miterlimit:10"></polygon><polygon points="390.21 218.88 387.36 219.69 387.77 220.77 391.29 220.77 391.97 219.69 390.75 219.82 390.21 218.88" style="fill:none;stroke:#919191;stroke-miterlimit:10"></polygon><circle cx="381.14" cy="193.66" r="57.13" style="fill:none;stroke:#919191;stroke-miterlimit:10"></circle><circle cx="288.43" cy="161.38" r="19.06" transform="translate(-29.63 251.22) rotate(-45)" style="fill:none;stroke:#919191;stroke-miterlimit:10"></circle><path d="M424.33,155.6c25.2,12.21,40.58,29.53,37.82,45.92-4.14,24.64-47.7,37.85-97.29,29.51S278.43,196,282.58,171.32a23.57,23.57,0,0,1,2.85-7.87" style="fill:none;stroke:#919191;stroke-miterlimit:10"></path><path d="M302,149c14.72-7.46,36.4-11,60.65-9.26" style="fill:none;stroke:#919191;stroke-miterlimit:10"></path><circle cx="252.79" cy="136.05" r="2.66" style="fill:none;stroke:#919191;stroke-miterlimit:10"></circle><circle cx="252.79" cy="136.05" r="1.16" style="fill:none;stroke:#919191;stroke-miterlimit:10"></circle><circle cx="252.79" cy="156.58" r="2.66" style="fill:none;stroke:#919191;stroke-miterlimit:10"></circle><circle cx="252.79" cy="156.58" r="1.16" style="fill:none;stroke:#919191;stroke-miterlimit:10"></circle><path d="M255.45,163.55a2.67,2.67,0,1,0-2.66,2.66A2.66,2.66,0,0,0,255.45,163.55Z" style="fill:none;stroke:#919191;stroke-miterlimit:10"></path><circle cx="252.79" cy="163.55" r="1.16" style="fill:none;stroke:#919191;stroke-miterlimit:10"></circle><circle cx="252.79" cy="143.29" r="2.66" style="fill:none;stroke:#919191;stroke-miterlimit:10"></circle><circle cx="252.79" cy="143.29" r="1.16" style="fill:none;stroke:#919191;stroke-miterlimit:10"></circle><line x1="252.79" y1="146.39" x2="252.79" y2="153.74" style="fill:none;stroke:#919191;stroke-miterlimit:10"></line><polyline points="253.28 150.74 261.79 150.74 270.29 153.24" style="fill:none;stroke:#919191;stroke-miterlimit:10"></polyline><line x1="378.8" y1="278.91" x2="387.45" y2="278.91" style="fill:none;stroke:#919191;stroke-miterlimit:10"></line><line x1="378.8" y1="282.57" x2="387.45" y2="282.57" style="fill:none;stroke:#919191;stroke-miterlimit:10"></line><line x1="385.46" y1="285.23" x2="380.46" y2="290.56" style="fill:none;stroke:#919191;stroke-miterlimit:10"></line><line x1="385.46" y1="291.89" x2="380.46" y2="297.21" style="fill:none;stroke:#919191;stroke-miterlimit:10"></line><path d="M385.87,265.62a2.67,2.67,0,1,0-2.67,2.66A2.67,2.67,0,0,0,385.87,265.62Z" style="fill:none;stroke:#919191;stroke-miterlimit:10"></path><circle cx="383.2" cy="265.62" r="1.16" style="fill:none;stroke:#919191;stroke-miterlimit:10"></circle><path d="M385.87,272.59a2.67,2.67,0,1,0-2.67,2.66A2.67,2.67,0,0,0,385.87,272.59Z" style="fill:none;stroke:#919191;stroke-miterlimit:10"></path><circle cx="383.2" cy="272.59" r="1.16" style="fill:none;stroke:#919191;stroke-miterlimit:10"></circle><path d="M385.87,302.15a2.67,2.67,0,1,0-2.67,2.66A2.67,2.67,0,0,0,385.87,302.15Z" style="fill:none;stroke:#919191;stroke-miterlimit:10"></path><circle cx="383.2" cy="302.15" r="1.16" style="fill:none;stroke:#919191;stroke-miterlimit:10"></circle><path d="M385.87,309.12a2.67,2.67,0,1,0-2.67,2.67A2.67,2.67,0,0,0,385.87,309.12Z" style="fill:none;stroke:#919191;stroke-miterlimit:10"></path><circle cx="383.2" cy="309.12" r="1.16" style="fill:none;stroke:#919191;stroke-miterlimit:10"></circle><polyline points="392.12 274.24 404.12 274.24 398.12 248.24" style="fill:none;stroke:#919191;stroke-miterlimit:10"></polyline><rect x="74.43" y="121.97" width="364.62" height="203.67" rx="18.52" style="fill:none;stroke:#919191;stroke-miterlimit:10"></rect><line x1="85.67" y1="292.24" x2="107" y2="292.24" style="fill:none;stroke:#919191;stroke-miterlimit:10"></line><line x1="85.67" y1="298.91" x2="107" y2="298.91" style="fill:none;stroke:#919191;stroke-miterlimit:10"></line><line x1="85.67" y1="305.58" x2="107" y2="305.58" style="fill:none;stroke:#919191;stroke-miterlimit:10"></line><path d="M337.67,131.58H270.33a2,2,0,0,1-2-2h0a2,2,0,0,1,2-2h67.34a2,2,0,0,1,2,2h0A2,2,0,0,1,337.67,131.58Z" style="fill:none;stroke:#919191;stroke-miterlimit:10"></path><path d="M236.33,131.58H169a2,2,0,0,1-2-2h0a2,2,0,0,1,2-2h67.33a2,2,0,0,1,2,2h0A2,2,0,0,1,236.33,131.58Z" style="fill:none;stroke:#919191;stroke-miterlimit:10"></path><path d="M158.33,131.58H91a2,2,0,0,1-2-2h0a2,2,0,0,1,2-2h67.33a2,2,0,0,1,2,2h0A2,2,0,0,1,158.33,131.58Z" style="fill:none;stroke:#919191;stroke-miterlimit:10"></path><path d="M417.67,131.58H350.33a2,2,0,0,1-2-2h0a2,2,0,0,1,2-2h67.34a2,2,0,0,1,2,2h0A2,2,0,0,1,417.67,131.58Z" style="fill:none;stroke:#919191;stroke-miterlimit:10"></path><path d="M417.67,319.58H350.33a2,2,0,0,1-2-2h0a2,2,0,0,1,2-2h67.34a2,2,0,0,1,2,2h0A2,2,0,0,1,417.67,319.58Z" style="fill:none;stroke:#919191;stroke-miterlimit:10"></path><path d="M155,319.58H87.67a2,2,0,0,1-2-2h0a2,2,0,0,1,2-2H155a2,2,0,0,1,2,2h0A2,2,0,0,1,155,319.58Z" style="fill:none;stroke:#919191;stroke-miterlimit:10"></path><rect x="89.67" y="144.24" width="14.67" height="17.33" style="fill:none;stroke:#919191;stroke-miterlimit:10"></rect><rect x="109.67" y="144.24" width="14.67" height="17.33" style="fill:none;stroke:#919191;stroke-miterlimit:10"></rect><rect x="129.67" y="152.24" width="7.9" height="9.33" style="fill:none;stroke:#919191;stroke-miterlimit:10"></rect></g><g id="freepik--Controls--inject-13"><path d="M145,403.13H127.91a5,5,0,0,1-5-5v-4.32a5,5,0,0,1,5-5h39a5,5,0,0,0,5-5v-2.62a5,5,0,0,1,5-5H343.48a5,5,0,0,1,5,5h0a5,5,0,0,0,5,5h36a5,5,0,0,1,5,5v5.65a5,5,0,0,1-5,5Z" style="fill:#5C55F7;stroke:#263238;stroke-linecap:round;stroke-linejoin:round"></path><path d="M204.09,394h-8c-1.29,0-2.33-2.25-2.33-5v-1.32c0-2.77,1-5,2.33-5h18.22c1.29,0,2.33-2.26,2.33-5V375c0-2.77,1.05-5,2.33-5h77.78c1.29,0,2.33,2.25,2.33,5h0c0,2.78,1.05,5,2.33,5h16.81c1.29,0,2.33,2.25,2.33,5v5.65c0,2.79-1.05,5.05-2.34,5Z" style="fill:#5C55F7;stroke:#263238;stroke-linecap:round;stroke-linejoin:round"></path><path d="M445,430.84H78.3l61.25-36a11.59,11.59,0,0,1,5.83-1.58H377.91a11.6,11.6,0,0,1,5.84,1.58Z" style="fill:#5C55F7;stroke:#263238;stroke-linecap:round;stroke-linejoin:round"></path><path d="M377.53,430.84H145.77L185.4,387.2a22.57,22.57,0,0,1,16.72-7.41H321.17a22.59,22.59,0,0,1,16.73,7.41Z" style="fill:#5C55F7;stroke:#263238;stroke-linecap:round;stroke-linejoin:round"></path><polygon points="370.38 408.61 391.95 408.61 369.99 398.81 370.38 408.61" style="fill:#263238;stroke:#263238;stroke-linecap:round;stroke-linejoin:round"></polygon><polygon points="374.31 415.28 395.48 415.28 398.62 425.86 374.31 415.28" style="fill:#263238;stroke:#263238;stroke-linecap:round;stroke-linejoin:round"></polygon><polygon points="151.8 408.61 130.23 408.61 152.19 398.81 151.8 408.61" style="fill:#263238;stroke:#263238;stroke-linecap:round;stroke-linejoin:round"></polygon><polygon points="147.88 415.28 126.7 415.28 123.57 425.86 147.88 415.28" style="fill:#263238;stroke:#263238;stroke-linecap:round;stroke-linejoin:round"></polygon><path d="M311.32,421.19c0,1.49-2.41,2.69-5.38,2.69s-5.38-1.2-5.38-2.69,2.41-2.69,5.38-2.69S311.32,419.71,311.32,421.19Z" style="fill:#fff;stroke:#263238;stroke-linecap:round;stroke-linejoin:round"></path><path d="M287.56,421.19c0,1.49-2.41,2.69-5.38,2.69s-5.38-1.2-5.38-2.69,2.41-2.69,5.38-2.69S287.56,419.71,287.56,421.19Z" style="fill:#263238;stroke:#263238;stroke-linecap:round;stroke-linejoin:round"></path><path d="M263.8,421.19c0,1.49-2.41,2.69-5.38,2.69s-5.38-1.2-5.38-2.69,2.41-2.69,5.38-2.69S263.8,419.71,263.8,421.19Z" style="fill:#fff;stroke:#263238;stroke-linecap:round;stroke-linejoin:round"></path><path d="M240,421.19c0,1.49-2.41,2.69-5.38,2.69s-5.38-1.2-5.38-2.69,2.41-2.69,5.38-2.69S240,419.71,240,421.19Z" style="fill:#263238;stroke:#263238;stroke-linecap:round;stroke-linejoin:round"></path><path d="M216.28,421.19c0,1.49-2.41,2.69-5.38,2.69s-5.38-1.2-5.38-2.69,2.4-2.69,5.38-2.69S216.28,419.71,216.28,421.19Z" style="fill:#fff;stroke:#263238;stroke-linecap:round;stroke-linejoin:round"></path><path d="M306.33,392.87h-5.17c-2.15,0-4.13-1.05-4.43-2.34h0c-.3-1.26-2.22-2.27-4.31-2.27H228.33c-2.08,0-4,1-4.3,2.27h0c-.3,1.29-2.29,2.34-4.43,2.34h-5.18c-2.14,0-4.22,1.07-4.64,2.41l-1.6,5.05c-.46,1.45,1,2.64,3.3,2.64H217c2.28,0,3.85,1.21,3.49,2.73h0c-.36,1.55,1.25,2.82,3.61,2.82h72.58c2.35,0,4-1.27,3.6-2.82h0c-.35-1.52,1.22-2.73,3.5-2.73h5.51c2.28,0,3.75-1.19,3.3-2.64l-1.6-5.05C310.56,393.94,308.48,392.87,306.33,392.87Z" style="fill:#263238;stroke:#263238;stroke-linecap:round;stroke-linejoin:round"></path><path d="M328.55,388.72a5,5,0,0,0-4.94-1.83c-1.8.41-2.51,1.89-1.57,3.3A5,5,0,0,0,327,392C328.79,391.61,329.49,390.13,328.55,388.72Z" style="fill:none;stroke:#263238;stroke-linecap:round;stroke-linejoin:round"></path><path d="M326.71,389.13a2.17,2.17,0,0,0-2.15-.79c-.78.18-1.08.82-.68,1.44a2.17,2.17,0,0,0,2.15.79C326.81,390.39,327.12,389.75,326.71,389.13Z" style="fill:none;stroke:#263238;stroke-linecap:round;stroke-linejoin:round"></path><path d="M341.59,408.47a5,5,0,0,0-4.95-1.82c-1.8.41-2.5,1.89-1.57,3.3a5,5,0,0,0,4.95,1.82C341.82,411.37,342.52,409.89,341.59,408.47Z" style="fill:none;stroke:#263238;stroke-linecap:round;stroke-linejoin:round"></path><path d="M339.75,408.89a2.17,2.17,0,0,0-2.15-.79c-.79.18-1.09.82-.68,1.43a2.16,2.16,0,0,0,2.15.8C339.85,410.15,340.15,409.51,339.75,408.89Z" style="fill:none;stroke:#263238;stroke-linecap:round;stroke-linejoin:round"></path><path d="M346,415.18a5,5,0,0,0-4.95-1.82c-1.8.41-2.5,1.89-1.57,3.3a5,5,0,0,0,4.95,1.82C346.25,418.08,347,416.6,346,415.18Z" style="fill:none;stroke:#263238;stroke-linecap:round;stroke-linejoin:round"></path><path d="M344.17,415.6a2.16,2.16,0,0,0-2.15-.79c-.78.18-1.08.82-.68,1.43a2.18,2.18,0,0,0,2.15.8C344.27,416.86,344.58,416.22,344.17,415.6Z" style="fill:none;stroke:#263238;stroke-linecap:round;stroke-linejoin:round"></path><path d="M333.15,395.68a5,5,0,0,0-4.95-1.82c-1.8.4-2.5,1.88-1.57,3.3a5,5,0,0,0,4.95,1.82C333.38,398.57,334.08,397.1,333.15,395.68Z" style="fill:none;stroke:#263238;stroke-linecap:round;stroke-linejoin:round"></path><path d="M331.31,396.1a2.15,2.15,0,0,0-2.15-.79c-.79.17-1.09.82-.69,1.43a2.18,2.18,0,0,0,2.16.79C331.41,397.35,331.71,396.71,331.31,396.1Z" style="fill:none;stroke:#263238;stroke-linecap:round;stroke-linejoin:round"></path><line x1="331.86" y1="399.4" x2="336.53" y2="406.48" style="fill:none;stroke:#263238;stroke-linecap:round;stroke-linejoin:round"></line><ellipse cx="239.42" cy="398.51" rx="3.58" ry="2.68" transform="translate(-38.8 26.05) rotate(-5.76)" style="fill:none;stroke:#fff;stroke-linecap:round;stroke-linejoin:round"></ellipse><path d="M239.51,397.34a1.53,1.53,0,0,0-1.63,1.17c0,.64.6,1.17,1.45,1.17a1.54,1.54,0,0,0,1.64-1.17C241,397.86,240.37,397.34,239.51,397.34Z" style="fill:none;stroke:#fff;stroke-linecap:round;stroke-linejoin:round"></path><ellipse cx="266.9" cy="398.5" rx="3.58" ry="2.68" transform="translate(-38.66 28.81) rotate(-5.76)" style="fill:none;stroke:#fff;stroke-linecap:round;stroke-linejoin:round"></ellipse><path d="M267,397.33a1.54,1.54,0,0,0-1.64,1.17c-.05.65.61,1.17,1.46,1.17a1.53,1.53,0,0,0,1.64-1.17C268.5,397.85,267.85,397.33,267,397.33Z" style="fill:none;stroke:#fff;stroke-linecap:round;stroke-linejoin:round"></path><path d="M276.44,395.81c-2,0-3.65,1.2-3.77,2.69s1.39,2.69,3.36,2.69,3.65-1.21,3.77-2.69S278.41,395.8,276.44,395.81Z" style="fill:none;stroke:#fff;stroke-linecap:round;stroke-linejoin:round"></path><path d="M276.32,397.33a1.53,1.53,0,0,0-1.63,1.17c-.05.64.6,1.17,1.45,1.17a1.54,1.54,0,0,0,1.64-1.17C277.83,397.85,277.18,397.33,276.32,397.33Z" style="fill:none;stroke:#fff;stroke-linecap:round;stroke-linejoin:round"></path><path d="M249.32,395.81c-2,0-3.66,1.21-3.77,2.7s1.38,2.69,3.35,2.69,3.66-1.21,3.77-2.7S251.28,395.81,249.32,395.81Z" style="fill:none;stroke:#fff;stroke-linecap:round;stroke-linejoin:round"></path><path d="M249.2,397.33a1.54,1.54,0,0,0-1.64,1.17c-.05.65.6,1.17,1.46,1.17a1.54,1.54,0,0,0,1.64-1.17C250.71,397.86,250.05,397.33,249.2,397.33Z" style="fill:none;stroke:#fff;stroke-linecap:round;stroke-linejoin:round"></path><line x1="253.26" y1="398.5" x2="263.11" y2="398.5" style="fill:none;stroke:#fff;stroke-linecap:round;stroke-linejoin:round"></line><ellipse cx="198.65" cy="389.46" rx="3.74" ry="2.56" transform="translate(-97.3 67.66) rotate(-15.58)" style="fill:none;stroke:#263238;stroke-linecap:round;stroke-linejoin:round"></ellipse><ellipse cx="198.65" cy="389.46" rx="1.63" ry="1.11" transform="translate(-97.31 67.67) rotate(-15.58)" style="fill:none;stroke:#263238;stroke-linecap:round;stroke-linejoin:round"></ellipse><path d="M182.35,408.47a5,5,0,0,1,5-1.82c1.8.41,2.5,1.89,1.57,3.3a5,5,0,0,1-5,1.82C182.12,411.37,181.42,409.89,182.35,408.47Z" style="fill:none;stroke:#263238;stroke-linecap:round;stroke-linejoin:round"></path><path d="M184.2,408.89a2.16,2.16,0,0,1,2.15-.79c.78.18,1.08.82.68,1.43a2.18,2.18,0,0,1-2.15.8C184.09,410.15,183.79,409.51,184.2,408.89Z" style="fill:none;stroke:#263238;stroke-linecap:round;stroke-linejoin:round"></path><path d="M177.93,415.18a5,5,0,0,1,4.94-1.82c1.8.41,2.51,1.89,1.57,3.3a5,5,0,0,1-4.95,1.82C177.69,418.08,177,416.6,177.93,415.18Z" style="fill:none;stroke:#263238;stroke-linecap:round;stroke-linejoin:round"></path><path d="M179.77,415.6a2.17,2.17,0,0,1,2.15-.79c.78.18,1.09.82.68,1.43a2.18,2.18,0,0,1-2.15.8C179.67,416.86,179.36,416.22,179.77,415.6Z" style="fill:none;stroke:#263238;stroke-linecap:round;stroke-linejoin:round"></path><path d="M190.79,395.68a5,5,0,0,1,5-1.82c1.8.4,2.5,1.88,1.57,3.3a5,5,0,0,1-4.95,1.82C190.56,398.57,189.86,397.1,190.79,395.68Z" style="fill:none;stroke:#263238;stroke-linecap:round;stroke-linejoin:round"></path><path d="M192.64,396.1a2.14,2.14,0,0,1,2.15-.79.9.9,0,0,1,.68,1.43,2.17,2.17,0,0,1-2.15.79C192.53,397.35,192.23,396.71,192.64,396.1Z" style="fill:none;stroke:#263238;stroke-linecap:round;stroke-linejoin:round"></path><line x1="192.08" y1="399.4" x2="187.41" y2="406.48" style="fill:none;stroke:#263238;stroke-linecap:round;stroke-linejoin:round"></line></g></svg>